<?xml version="1.0" encoding="UTF-8" standalone="no"?>
<!DOCTYPE svg PUBLIC "-//W3C//DTD SVG 1.1//EN" "http://www.w3.org/Graphics/SVG/1.1/DTD/svg11.dtd">
<svg width="100%" height="100%" viewBox="0 0 1684 375" version="1.1" xmlns="http://www.w3.org/2000/svg" xmlns:xlink="http://www.w3.org/1999/xlink" xml:space="preserve" xmlns:serif="http://www.serif.com/" style="fill-rule:evenodd;clip-rule:evenodd;stroke-linejoin:round;stroke-miterlimit:2;">
    <g id="Logo" transform="matrix(1,0,0,1,-1112.242393,-2041.350703)">
        <g id="Logo1" serif:id="Logo" transform="matrix(1,0,0,1,1315.754609,1857.426783)">
            <g id="Text" transform="matrix(1,0,0,1,-50.538542,110.804402)">
                <g id="Caesar-OG" serif:id="Caesar OG">
                    <g transform="matrix(7.365144,0,0,7.365144,-3484.200778,70.961537)">
                        <path d="M529.492,13.29C529.492,11.49 529.833,9.797 530.518,8.213C531.203,6.629 532.125,5.256 533.291,4.091C534.454,2.928 535.828,2.003 537.412,1.319C538.996,0.636 540.688,0.293 542.488,0.293C544.312,0.293 545.914,0.582 547.294,1.158C548.673,1.733 549.976,2.562 551.2,3.642C551.56,3.978 551.572,4.313 551.236,4.649L549.652,6.27C549.388,6.606 549.087,6.606 548.751,6.27C547.912,5.526 546.946,4.938 545.854,4.505C544.761,4.074 543.652,3.857 542.524,3.857C541.228,3.857 540.034,4.109 538.942,4.613C537.849,5.118 536.896,5.796 536.08,6.647C535.263,7.5 534.627,8.49 534.171,9.618C533.716,10.746 533.488,11.946 533.488,13.217C533.488,14.466 533.722,15.66 534.19,16.799C534.658,17.94 535.293,18.93 536.098,19.77C536.902,20.61 537.856,21.282 538.96,21.786C540.064,22.29 541.264,22.541 542.56,22.541C543.879,22.541 545.026,22.313 545.998,21.857C546.97,21.402 547.888,20.838 548.751,20.165C549.064,19.926 549.351,19.914 549.616,20.129L551.272,21.749C551.416,21.87 551.476,22.032 551.453,22.235C551.427,22.44 551.356,22.602 551.236,22.722C550.011,23.922 548.65,24.804 547.15,25.368C545.65,25.931 544.095,26.213 542.488,26.213C540.688,26.213 538.996,25.877 537.412,25.206C535.828,24.534 534.454,23.616 533.291,22.452C532.125,21.288 531.203,19.92 530.518,18.348C529.833,16.776 529.492,15.089 529.492,13.29Z" style="fill:rgb(31,86,134);fill-rule:nonzero;"/>
                    </g>
                    <g transform="matrix(7.365144,0,0,7.365144,-3484.200778,70.961537)">
                        <path d="M572.908,17.286L568.48,7.421L568.3,7.421L563.908,17.286L572.908,17.286ZM557.212,25.853C556.948,25.853 556.75,25.758 556.619,25.565C556.486,25.374 556.48,25.158 556.6,24.917L567.652,0.689C567.701,0.57 567.791,0.474 567.922,0.401C568.054,0.33 568.167,0.293 568.264,0.293L568.625,0.293C568.72,0.293 568.833,0.33 568.966,0.401C569.097,0.474 569.188,0.57 569.236,0.689L580.216,24.917C580.335,25.158 580.33,25.374 580.199,25.565C580.066,25.758 579.869,25.853 579.604,25.853L577.336,25.853C576.953,25.853 576.675,25.673 576.508,25.313L574.277,20.381L562.504,20.381C562.144,21.222 561.778,22.044 561.406,22.848C561.034,23.652 560.667,24.474 560.308,25.313C560.259,25.434 560.164,25.554 560.02,25.673C559.876,25.794 559.697,25.853 559.48,25.853L557.212,25.853Z" style="fill:rgb(31,86,134);fill-rule:nonzero;"/>
                    </g>
                    <g transform="matrix(7.365144,0,0,7.365144,-3484.200778,70.961537)">
                        <path d="M587.416,1.337C587.416,1.146 587.482,0.984 587.614,0.852C587.746,0.72 587.908,0.653 588.099,0.653L602.5,0.653C602.691,0.653 602.853,0.72 602.986,0.852C603.118,0.984 603.183,1.146 603.183,1.337L603.183,3.354C603.183,3.546 603.118,3.708 602.986,3.839C602.853,3.972 602.691,4.038 602.5,4.038L591.125,4.038L591.125,11.381L600.736,11.381C600.927,11.381 601.089,11.448 601.222,11.58C601.353,11.712 601.419,11.874 601.419,12.065L601.419,14.082C601.419,14.274 601.353,14.436 601.222,14.567C601.089,14.7 600.927,14.766 600.736,14.766L591.125,14.766L591.125,22.505L602.5,22.505C602.691,22.505 602.853,22.572 602.986,22.704C603.118,22.836 603.183,22.998 603.183,23.189L603.183,25.169C603.183,25.362 603.118,25.524 602.986,25.655C602.853,25.788 602.691,25.853 602.5,25.853L588.099,25.853C587.908,25.853 587.746,25.788 587.614,25.655C587.482,25.524 587.416,25.362 587.416,25.169L587.416,1.337Z" style="fill:rgb(31,86,134);fill-rule:nonzero;"/>
                    </g>
                    <g transform="matrix(7.365144,0,0,7.365144,-3484.200778,70.961537)">
                        <path d="M610.815,23.37C610.647,23.226 610.521,23.076 610.437,22.919C610.353,22.764 610.407,22.53 610.599,22.217C610.767,21.978 610.923,21.731 611.067,21.479C611.21,21.228 611.367,20.982 611.535,20.742C611.703,20.502 611.901,20.352 612.128,20.291C612.357,20.232 612.567,20.286 612.759,20.454C612.806,20.502 613.005,20.658 613.353,20.921C613.701,21.186 614.145,21.468 614.685,21.768C615.225,22.068 615.825,22.338 616.485,22.578C617.145,22.818 617.823,22.937 618.519,22.937C619.767,22.937 620.757,22.608 621.49,21.948C622.22,21.288 622.587,20.502 622.587,19.589C622.587,18.509 622.13,17.591 621.219,16.835C620.306,16.08 618.951,15.33 617.151,14.585C616.239,14.202 615.38,13.782 614.578,13.326C613.773,12.87 613.077,12.348 612.49,11.759C611.901,11.172 611.439,10.481 611.103,9.689C610.767,8.897 610.599,7.986 610.599,6.954C610.599,6.258 610.744,5.52 611.031,4.74C611.319,3.96 611.775,3.24 612.399,2.58C613.023,1.92 613.833,1.374 614.83,0.941C615.825,0.509 617.042,0.293 618.483,0.293C619.395,0.293 620.235,0.39 621.003,0.582C621.771,0.774 622.449,0.996 623.037,1.248C623.625,1.5 624.099,1.74 624.458,1.967C624.819,2.196 625.046,2.346 625.143,2.417C625.287,2.514 625.407,2.676 625.503,2.903C625.599,3.132 625.55,3.378 625.359,3.642C625.214,3.857 625.065,4.086 624.91,4.326C624.752,4.566 624.603,4.793 624.458,5.009C624.315,5.25 624.135,5.412 623.919,5.496C623.703,5.58 623.462,5.538 623.199,5.37C623.126,5.322 622.935,5.202 622.623,5.009C622.311,4.818 621.921,4.613 621.453,4.397C620.985,4.182 620.481,3.99 619.941,3.821C619.401,3.654 618.867,3.569 618.339,3.569C617.595,3.569 616.958,3.678 616.431,3.894C615.903,4.109 615.483,4.379 615.171,4.704C614.859,5.027 614.63,5.375 614.487,5.748C614.343,6.12 614.271,6.474 614.271,6.81C614.271,7.842 614.655,8.7 615.423,9.383C616.191,10.067 617.332,10.722 618.843,11.346C619.899,11.777 620.895,12.234 621.832,12.713C622.767,13.194 623.583,13.746 624.279,14.37C624.975,14.994 625.533,15.714 625.953,16.529C626.373,17.346 626.583,18.306 626.583,19.41C626.583,20.346 626.385,21.228 625.99,22.056C625.593,22.883 625.041,23.603 624.333,24.215C623.625,24.828 622.779,25.313 621.794,25.673C620.81,26.034 619.73,26.213 618.555,26.213C617.451,26.213 616.455,26.093 615.567,25.853C614.679,25.614 613.905,25.332 613.246,25.007C612.584,24.684 612.05,24.366 611.643,24.054C611.235,23.742 610.958,23.514 610.815,23.37Z" style="fill:rgb(31,86,134);fill-rule:nonzero;"/>
                    </g>
                    <g transform="matrix(7.365144,0,0,7.365144,-3484.200778,70.961537)">
                        <path d="M648.075,17.286L643.646,7.421L643.466,7.421L639.075,17.286L648.075,17.286ZM632.378,25.853C632.115,25.853 631.917,25.758 631.785,25.565C631.653,25.374 631.647,25.158 631.767,24.917L642.819,0.689C642.867,0.57 642.957,0.474 643.089,0.401C643.22,0.33 643.334,0.293 643.431,0.293L643.791,0.293C643.886,0.293 644,0.33 644.132,0.401C644.264,0.474 644.355,0.57 644.403,0.689L655.382,24.917C655.502,25.158 655.496,25.374 655.365,25.565C655.232,25.758 655.035,25.853 654.771,25.853L652.503,25.853C652.119,25.853 651.842,25.673 651.675,25.313L649.443,20.381L637.671,20.381C637.31,21.222 636.945,22.044 636.573,22.848C636.201,23.652 635.834,24.474 635.474,25.313C635.426,25.434 635.331,25.554 635.187,25.673C635.042,25.794 634.863,25.853 634.646,25.853L632.378,25.853Z" style="fill:rgb(31,86,134);fill-rule:nonzero;"/>
                    </g>
                    <g transform="matrix(7.365144,0,0,7.365144,-3484.200778,70.961537)">
                        <path d="M672.77,12.894C673.346,12.894 673.905,12.78 674.444,12.552C674.984,12.324 675.453,12.006 675.848,11.598C676.245,11.19 676.562,10.715 676.802,10.175C677.042,9.636 677.163,9.054 677.163,8.43C677.163,7.854 677.042,7.302 676.802,6.773C676.562,6.246 676.245,5.79 675.848,5.405C675.453,5.022 674.984,4.716 674.444,4.487C673.905,4.26 673.346,4.146 672.77,4.146L666.363,4.146L666.363,12.894L672.77,12.894ZM662.583,1.337C662.583,1.146 662.648,0.984 662.781,0.852C662.912,0.72 663.074,0.653 663.266,0.653L673.058,0.653C674.138,0.653 675.152,0.852 676.1,1.248C677.048,1.644 677.882,2.19 678.602,2.886C679.323,3.582 679.886,4.397 680.294,5.334C680.702,6.27 680.907,7.277 680.907,8.357C680.907,9.174 680.774,9.959 680.51,10.715C680.246,11.472 679.88,12.162 679.413,12.786C678.944,13.41 678.386,13.968 677.739,14.459C677.09,14.952 676.371,15.354 675.579,15.665L680.51,24.81C680.63,25.05 680.636,25.284 680.529,25.512C680.42,25.74 680.209,25.853 679.898,25.853L677.09,25.853C676.947,25.853 676.826,25.817 676.73,25.746C676.634,25.673 676.562,25.602 676.514,25.529L671.726,15.99L666.291,15.99L666.291,25.169C666.291,25.362 666.224,25.524 666.092,25.655C665.96,25.788 665.798,25.853 665.606,25.853L663.266,25.853C663.074,25.853 662.912,25.788 662.781,25.655C662.648,25.524 662.583,25.362 662.583,25.169L662.583,1.337Z" style="fill:rgb(31,86,134);fill-rule:nonzero;"/>
                    </g>
                </g>
                <g transform="matrix(0.689655,0,0,0.689655,334.301203,-74.597687)">
                    <g transform="matrix(267,0,0,267,1443.302131,754.101456)">
                    </g>
                    <text x="397.463px" y="754.101px" style="font-family:'BrandonText-Regular', 'Brandon Text', sans-serif;font-weight:390;font-size:267px;fill:rgb(239,97,98);">F<tspan x="566.741px 808.376px 1003.82px 1213.148px " y="754.101px 754.101px 754.101px 754.101px ">ORUM</tspan></text>
                </g>
            </g>
        </g>
        <g id="Horn" transform="matrix(0.960182,0,0,0.960182,876.018855,1712.861179)">
            <path d="M550.338,507.686C550.191,507.539 547.279,505.679 548.148,503.381C553.685,488.752 578.074,465.482 594.559,375.511C596.589,364.431 586.036,361.614 587.845,351.537C595.155,310.812 752.548,413.35 750.581,444.505C749.57,460.527 727.81,454.496 725.779,455.929C699.132,474.736 657.543,521.068 657.308,521.32C653.372,525.523 617.495,563.84 606.219,572.013C604.711,573.106 602.05,567.794 601.82,567.334C586.818,537.381 572.269,525.547 550.338,507.686Z" style="fill:rgb(31,86,134);"/>
            <path d="M380.503,515.117C378.431,514.962 365.572,514.001 355.825,507.024C350.574,503.265 349.001,500.653 350.324,497.433C355.307,485.301 362.676,489.208 366.302,490.91C401.156,507.267 416.955,459.307 390.37,434.636C364.109,410.265 334.574,425.867 330.3,428.125C326.072,430.359 326.023,428.068 324.373,423.548C317.894,405.796 306.624,401.631 305.944,400.248C304.539,397.389 329.946,386.409 356.474,388.867C445.051,397.076 450.919,509.916 380.503,515.117Z" style="fill:rgb(31,86,134);"/>
            <path d="M320.599,544.919C325.101,544.348 325.362,544.368 331.189,548.9C357.464,569.338 372.564,563.809 369.034,570.257C350.93,603.326 354.087,612.418 356.363,634.484C356.921,639.896 327.011,625.423 324.609,624.261C304.079,614.326 284.459,594.974 280.762,589.332C276.268,582.476 286.828,555.134 320.599,544.919Z" style="fill:rgb(31,86,134);"/>
            <path d="M246.95,513.467C246.219,503.405 245.744,503.5 246.197,493.477C246.911,477.672 296.856,477.728 300.559,492.485C305.965,514.027 304.837,514.537 316.072,533.731C318.074,537.151 308.932,537.763 296.714,545.827C270.056,563.422 274.586,583.813 267.837,573.293C251.332,547.565 247.596,518.495 246.95,513.467Z" style="fill:rgb(31,86,134);"/>
            <path d="M249.9,470.605C251.851,463.889 254.725,450.458 267.897,431.803C274.913,421.866 286.466,410.905 291.691,407.809C300.39,402.655 310.664,416.088 313.199,420.678C322.546,437.599 315.426,440.339 312.033,445.173C297.059,466.511 303.649,480.452 296.578,477.321C264.795,463.247 253.562,478.703 249.646,476.237C248.004,475.204 249.083,474.731 249.9,470.605Z" style="fill:rgb(31,86,134);"/>
            <path d="M713.582,434.286C661.444,410.778 613.346,371.488 611.681,363.457C607.616,343.843 731.078,422.181 726.939,435.648C725.723,439.604 713.928,434.405 713.582,434.286Z" style="fill:rgb(31,86,134);"/>
            <path d="M521.401,505.654C534.439,515.367 529.308,520.094 532.642,521.157C535.905,522.197 537.45,510.471 544.242,514.907C566.14,529.212 603.188,573.513 594.397,582.395C587.95,588.909 578.925,590.187 579.984,597.418C581.12,605.186 583.97,607.086 556.951,646.806C546.621,661.994 542.944,660.847 543.066,673.501C543.323,700.213 549.796,729.764 547.457,731.422C547.362,731.488 536.345,733.068 535.677,729.463C535.014,725.887 531.071,689.31 530.982,678.497C530.925,671.513 531.89,669.154 528.515,669.002C514.28,668.358 513.603,667.834 513.916,666.694C514.633,664.087 530.963,664.151 543.092,648.194C544.699,646.079 567.757,612.732 569.115,605.439C570.655,597.165 568.164,595.07 555.021,569.754C547.362,555.003 545.419,549.754 520.643,557.945C491.288,567.651 485.154,565.981 488.742,573.397C495.326,587.001 521.005,587.843 536.57,578.658C542.959,574.888 534.385,585.718 535.99,592.395C538.492,602.8 548.178,607.947 540.454,605.72C539.624,605.481 531.761,598.866 512.779,612.877C486.17,632.518 495.198,667.39 488.411,650.54C484.737,641.418 487.968,635.886 483.587,636.95C431.742,649.545 429.345,642.735 425.505,645.509C422.917,647.378 431.42,664.81 451.551,669.249C458.218,670.719 467.991,671.492 472.519,671.217C475.476,671.037 475.76,670.456 476.434,671.531C477.281,672.883 467.854,677.404 454.498,678.47C454.035,678.507 449.366,678.88 448.81,679.657C448.071,680.688 448.96,729.546 445.672,730.866C444.939,731.16 434.562,732.267 434.612,729.488C434.658,726.907 436.129,708.509 436.271,689.499C436.372,676.013 436.299,675.308 431.207,671.958C414.008,660.64 415.314,645.672 409.541,645.123C399.618,644.18 371.268,644.196 367.836,637.33C356.665,614.978 374.97,569.214 382.474,569.22C388.707,569.226 390.668,571.323 390.885,567.554C390.963,566.205 389.711,558.818 395.95,550.889C404.41,540.139 418.132,545.846 419.612,543.597C424.045,536.864 428.965,525.491 448.482,530.577C454.064,532.032 449.924,520.73 466.542,514.63C477.234,510.705 487.255,517.502 488.151,516.15C488.849,515.097 491.532,507.34 501.53,503.588C510.909,500.069 519.99,504.903 521.401,505.654ZM502.816,549.405C504.798,554.269 506.419,551.746 511.438,550.284C523.161,546.869 528.365,546.19 527.709,543.477C521.257,516.806 517.595,515.038 515.285,513.923C508.725,510.755 493.267,513.283 496.97,529.39C497.344,531.016 497.51,531.742 502.816,549.405ZM476.443,523.842C474.556,523.786 456.663,523.255 460.726,541.448C462.149,547.821 476.986,591.75 477.307,592.577C485.926,614.766 503.02,600.149 503.46,595.495C503.745,592.478 502.058,593.729 497.505,592.48C495.657,591.973 483.664,588.684 478.984,577.285C471.611,559.328 488.124,557.339 492.603,555.665C493.989,555.147 492.39,550.041 492.244,549.576C485.913,529.365 487.108,526.854 476.443,523.842ZM415.354,554.891C414.506,554.717 407.346,552.126 402.685,558.627C399.304,563.342 401.494,569.833 402.851,574.404C412.767,607.803 417.727,611.787 425.586,608.748C436.774,604.422 430.425,592.22 429.814,590.392C419.98,560.954 422.272,559.108 415.354,554.891ZM433.517,541.524C424.712,549.122 427.682,554.425 443.578,599.472C445.775,605.701 449.097,617.508 461.458,613.38C475.22,608.785 466.527,592.599 461.337,576.552C451.218,545.263 451.741,539.995 440.502,539.425C437.353,539.265 434.02,541.228 433.517,541.524Z" style="fill:rgb(31,86,134);"/>
        </g>
    </g>
</svg>
