<?xml version="1.0" encoding="UTF-8" standalone="no"?>
<!DOCTYPE svg PUBLIC "-//W3C//DTD SVG 1.1//EN" "http://www.w3.org/Graphics/SVG/1.1/DTD/svg11.dtd">
<svg width="100%" height="100%" viewBox="0 0 485 375" version="1.1" xmlns="http://www.w3.org/2000/svg" xmlns:xlink="http://www.w3.org/1999/xlink" xml:space="preserve" xmlns:serif="http://www.serif.com/" style="fill-rule:evenodd;clip-rule:evenodd;stroke-linejoin:round;stroke-miterlimit:2;">
    <g id="Horn" transform="matrix(0.960182,0,0,0.960182,-236.223537,-328.489524)">
        <path d="M550.338,507.686C550.191,507.539 547.279,505.679 548.148,503.381C553.685,488.752 578.074,465.482 594.559,375.511C596.589,364.431 586.036,361.614 587.845,351.537C595.155,310.812 752.548,413.35 750.581,444.505C749.57,460.527 727.81,454.496 725.779,455.929C699.132,474.736 657.543,521.068 657.308,521.32C653.372,525.523 617.495,563.84 606.219,572.013C604.711,573.106 602.05,567.794 601.82,567.334C586.818,537.381 572.269,525.547 550.338,507.686Z" style="fill:rgb(31,86,134);"/>
        <path d="M380.503,515.117C378.431,514.962 365.572,514.001 355.825,507.024C350.574,503.265 349.001,500.653 350.324,497.433C355.307,485.301 362.676,489.208 366.302,490.91C401.156,507.267 416.955,459.307 390.37,434.636C364.109,410.265 334.574,425.867 330.3,428.125C326.072,430.359 326.023,428.068 324.373,423.548C317.894,405.796 306.624,401.631 305.944,400.248C304.539,397.389 329.946,386.409 356.474,388.867C445.051,397.076 450.919,509.916 380.503,515.117Z" style="fill:rgb(31,86,134);"/>
        <path d="M320.599,544.919C325.101,544.348 325.362,544.368 331.189,548.9C357.464,569.338 372.564,563.809 369.034,570.257C350.93,603.326 354.087,612.418 356.363,634.484C356.921,639.896 327.011,625.423 324.609,624.261C304.079,614.326 284.459,594.974 280.762,589.332C276.268,582.476 286.828,555.134 320.599,544.919Z" style="fill:rgb(31,86,134);"/>
        <path d="M246.95,513.467C246.219,503.405 245.744,503.5 246.197,493.477C246.911,477.672 296.856,477.728 300.559,492.485C305.965,514.027 304.837,514.537 316.072,533.731C318.074,537.151 308.932,537.763 296.714,545.827C270.056,563.422 274.586,583.813 267.837,573.293C251.332,547.565 247.596,518.495 246.95,513.467Z" style="fill:rgb(31,86,134);"/>
        <path d="M249.9,470.605C251.851,463.889 254.725,450.458 267.897,431.803C274.913,421.866 286.466,410.905 291.691,407.809C300.39,402.655 310.664,416.088 313.199,420.678C322.546,437.599 315.426,440.339 312.033,445.173C297.059,466.511 303.649,480.452 296.578,477.321C264.795,463.247 253.562,478.703 249.646,476.237C248.004,475.204 249.083,474.731 249.9,470.605Z" style="fill:rgb(31,86,134);"/>
        <path d="M713.582,434.286C661.444,410.778 613.346,371.488 611.681,363.457C607.616,343.843 731.078,422.181 726.939,435.648C725.723,439.604 713.928,434.405 713.582,434.286Z" style="fill:rgb(31,86,134);"/>
        <path d="M521.401,505.654C534.439,515.367 529.308,520.094 532.642,521.157C535.905,522.197 537.45,510.471 544.242,514.907C566.14,529.212 603.188,573.513 594.397,582.395C587.95,588.909 578.925,590.187 579.984,597.418C581.12,605.186 583.97,607.086 556.951,646.806C546.621,661.994 542.944,660.847 543.066,673.501C543.323,700.213 549.796,729.764 547.457,731.422C547.362,731.488 536.345,733.068 535.677,729.463C535.014,725.887 531.071,689.31 530.982,678.497C530.925,671.513 531.89,669.154 528.515,669.002C514.28,668.358 513.603,667.834 513.916,666.694C514.633,664.087 530.963,664.151 543.092,648.194C544.699,646.079 567.757,612.732 569.115,605.439C570.655,597.165 568.164,595.07 555.021,569.754C547.362,555.003 545.419,549.754 520.643,557.945C491.288,567.651 485.154,565.981 488.742,573.397C495.326,587.001 521.005,587.843 536.57,578.658C542.959,574.888 534.385,585.718 535.99,592.395C538.492,602.8 548.178,607.947 540.454,605.72C539.624,605.481 531.761,598.866 512.779,612.877C486.17,632.518 495.198,667.39 488.411,650.54C484.737,641.418 487.968,635.886 483.587,636.95C431.742,649.545 429.345,642.735 425.505,645.509C422.917,647.378 431.42,664.81 451.551,669.249C458.218,670.719 467.991,671.492 472.519,671.217C475.476,671.037 475.76,670.456 476.434,671.531C477.281,672.883 467.854,677.404 454.498,678.47C454.035,678.507 449.366,678.88 448.81,679.657C448.071,680.688 448.96,729.546 445.672,730.866C444.939,731.16 434.562,732.267 434.612,729.488C434.658,726.907 436.129,708.509 436.271,689.499C436.372,676.013 436.299,675.308 431.207,671.958C414.008,660.64 415.314,645.672 409.541,645.123C399.618,644.18 371.268,644.196 367.836,637.33C356.665,614.978 374.97,569.214 382.474,569.22C388.707,569.226 390.668,571.323 390.885,567.554C390.963,566.205 389.711,558.818 395.95,550.889C404.41,540.139 418.132,545.846 419.612,543.597C424.045,536.864 428.965,525.491 448.482,530.577C454.064,532.032 449.924,520.73 466.542,514.63C477.234,510.705 487.255,517.502 488.151,516.15C488.849,515.097 491.532,507.34 501.53,503.588C510.909,500.069 519.99,504.903 521.401,505.654ZM502.816,549.405C504.798,554.269 506.419,551.746 511.438,550.284C523.161,546.869 528.365,546.19 527.709,543.477C521.257,516.806 517.595,515.038 515.285,513.923C508.725,510.755 493.267,513.283 496.97,529.39C497.344,531.016 497.51,531.742 502.816,549.405ZM476.443,523.842C474.556,523.786 456.663,523.255 460.726,541.448C462.149,547.821 476.986,591.75 477.307,592.577C485.926,614.766 503.02,600.149 503.46,595.495C503.745,592.478 502.058,593.729 497.505,592.48C495.657,591.973 483.664,588.684 478.984,577.285C471.611,559.328 488.124,557.339 492.603,555.665C493.989,555.147 492.39,550.041 492.244,549.576C485.913,529.365 487.108,526.854 476.443,523.842ZM415.354,554.891C414.506,554.717 407.346,552.126 402.685,558.627C399.304,563.342 401.494,569.833 402.851,574.404C412.767,607.803 417.727,611.787 425.586,608.748C436.774,604.422 430.425,592.22 429.814,590.392C419.98,560.954 422.272,559.108 415.354,554.891ZM433.517,541.524C424.712,549.122 427.682,554.425 443.578,599.472C445.775,605.701 449.097,617.508 461.458,613.38C475.22,608.785 466.527,592.599 461.337,576.552C451.218,545.263 451.741,539.995 440.502,539.425C437.353,539.265 434.02,541.228 433.517,541.524Z" style="fill:rgb(31,86,134);"/>
    </g>
</svg>
